<?xml version="1.0" encoding="iso-8859-1"?>
<!-- Generator: Adobe Illustrator 19.0.0, SVG Export Plug-In . SVG Version: 6.00 Build 0)  -->
<svg version="1.1" id="Capa_1" xmlns="http://www.w3.org/2000/svg" xmlns:xlink="http://www.w3.org/1999/xlink" x="0px" y="0px"
	 viewBox="0 0 472 472" style="enable-background:new 0 0 472 472;" xml:space="preserve">
<g>
	<path style="fill:#FFEEC7;" d="M357.92,97.84c13.282,12.411,24.611,26.76,33.6,42.56c6.812,11.713,12.261,24.167,16.24,37.12
		c5.856,18.927,8.638,38.671,8.24,58.48c-1.331,56.117-28.122,108.579-72.8,142.56c-80.892,61.442-196.276,45.675-257.718-35.217
		c-10.88-14.324-19.6-30.167-25.882-47.023c-1.2-3.28-2.32-6.56-3.36-9.92c-3.94-12.758-6.514-25.898-7.68-39.2
		c-2.767-33.416,3.68-66.952,18.64-96.96c22.426-45.059,62.273-79.011,110.32-94c63.212-19.624,132.094-3.733,180.32,41.6"/>
	<path style="fill:#FFEEC7;" d="M407.76,177.52c5.856,18.927,8.638,38.671,8.24,58.48h-0.08
		c-116.985-56.113-253.931-51.937-367.28,11.2h-0.08c-2.767-33.416,3.68-66.952,18.64-96.96
		c91.628-36.352,192.269-43.422,288.08-20.24c12.32,2.96,24.4,6.48,36.24,10.4C398.332,152.113,403.781,164.568,407.76,177.52
		L407.76,177.52z"/>
</g>
<path style="fill:#FFB546;" d="M415.92,236H416c-0.343,16.851-3.036,33.573-8,49.68h-0.08c-26.035-14.052-53.826-24.571-82.64-31.28
	c-10.382-2.342-20.875-4.158-31.44-5.44c-15.121-18.481-37.972-28.887-61.84-28.16c-30.56,0-56.56,15.28-67.04,36.72
	c-36.411,9.114-71.734,22.122-105.36,38.8c-1.2-3.28-2.32-6.56-3.36-9.92c-3.94-12.758-6.514-25.898-7.68-39.2h0.08
	C161.989,184.063,298.935,179.887,415.92,236L415.92,236z"/>
<path style="fill:#E76E54;" d="M407.92,285.68H408c-6.269,20.581-16.127,39.892-29.12,57.04c-21.639-11.6-44.682-20.366-68.56-26.08
	c-6.8-1.68-13.68-2.96-20.48-4.08C274.605,327.997,253.683,336.475,232,336c-19.918,0.363-39.257-6.711-54.24-19.84
	c-30.284,7.115-59.236,19.026-85.76,35.28c-13.947-16.332-24.914-34.99-32.4-55.12c33.626-16.678,68.949-29.686,105.36-38.8
	c10.48-21.44,36.48-36.72,67.04-36.72c23.868-0.727,46.719,9.679,61.84,28.16c10.565,1.282,21.058,3.098,31.44,5.44
	C354.094,261.109,381.885,271.628,407.92,285.68L407.92,285.68z M264,280c0-13.28-14.32-24-32-24s-32,10.72-32,24s14.32,24,32,24
	S264,293.28,264,280z"/>
<g>
	<path style="fill:#FFB546;" d="M391.52,140.4c-11.84-3.92-23.92-7.44-36.24-10.4c-95.811-23.182-196.452-16.112-288.08,20.24
		c8.034-16.27,18.47-31.237,30.96-44.4c84.393-25.194,173.896-27.952,259.68-8h0.08C371.202,110.251,382.531,124.6,391.52,140.4z"/>
	<path style="fill:#FFB546;" d="M378.88,342.72c-10.15,13.564-22.162,25.629-35.68,35.84c-14.206-6.472-28.992-11.589-44.16-15.28
		c-57.148-13.813-117.381-6.095-169.2,21.68c-14.099-9.374-26.834-20.654-37.84-33.52c26.524-16.254,55.476-28.165,85.76-35.28
		c14.983,13.129,34.322,20.203,54.24,19.84c21.683,0.475,42.605-8.003,57.84-23.44c6.8,1.12,13.68,2.4,20.48,4.08
		C334.198,322.354,357.241,331.12,378.88,342.72L378.88,342.72z"/>
</g>
<path style="fill:#FFEEC7;" d="M299.04,363.28c15.168,3.691,29.954,8.808,44.16,15.28c-62.47,47.436-148.159,50.007-213.36,6.4
	C181.659,357.185,241.892,349.467,299.04,363.28z"/>
<path style="fill:#FFDF99;" d="M357.84,97.84c-85.784-19.952-175.287-17.194-259.68,8C167.662,31.928,283.92,28.347,357.84,97.84z"
	/>
<g>
	<ellipse style="fill:#D95354;" cx="232" cy="280" rx="32" ry="24"/>
	<path style="fill:#D95354;" d="M32,56H16c0-8.837-7.163-16-16-16V24c8.837,0,16-7.163,16-16h16c0,8.837,7.163,16,16,16v16
		C39.163,40,32,47.163,32,56z M21.144,32c1.015,0.887,1.969,1.841,2.856,2.856c0.887-1.015,1.841-1.969,2.856-2.856
		c-1.015-0.887-1.969-1.841-2.856-2.856C23.113,30.159,22.159,31.113,21.144,32z"/>
</g>
<circle style="fill:#168DE2;" cx="416" cy="48" r="8"/>
<path style="fill:#FFB546;" d="M424,464h-16c0-13.255-10.745-24-24-24l0,0h-24v-16h24c13.255,0,24-10.745,24-24h16
	c0,13.255,10.745,24,24,24h24v16h-24C434.745,440,424,450.745,424,464L424,464z M408,432c3.029,2.278,5.722,4.971,8,8
	c2.278-3.029,4.971-5.722,8-8c-3.029-2.278-5.722-4.971-8-8C413.722,427.029,411.029,429.722,408,432z"/>
<g>
</g>
<g>
</g>
<g>
</g>
<g>
</g>
<g>
</g>
<g>
</g>
<g>
</g>
<g>
</g>
<g>
</g>
<g>
</g>
<g>
</g>
<g>
</g>
<g>
</g>
<g>
</g>
<g>
</g>
</svg>
