<?xml version="1.0" encoding="UTF-8" standalone="no"?>
<svg
   xmlns:dc="http://purl.org/dc/elements/1.1/"
   xmlns:cc="http://creativecommons.org/ns#"
   xmlns:rdf="http://www.w3.org/1999/02/22-rdf-syntax-ns#"
   xmlns:svg="http://www.w3.org/2000/svg"
   xmlns="http://www.w3.org/2000/svg"
   xmlns:sodipodi="http://sodipodi.sourceforge.net/DTD/sodipodi-0.dtd"
   xmlns:inkscape="http://www.inkscape.org/namespaces/inkscape"
   height="472pt"
   viewBox="0 0 472 472"
   width="472pt"
   version="1.1"
   id="svg4241"
   sodipodi:docname="new rocket.svg"
   inkscape:version="0.92.4 (unknown)">
  <metadata
     id="metadata4247">
    <rdf:RDF>
      <cc:Work
         rdf:about="">
        <dc:format>image/svg+xml</dc:format>
        <dc:type
           rdf:resource="http://purl.org/dc/dcmitype/StillImage" />
        <dc:title></dc:title>
      </cc:Work>
    </rdf:RDF>
  </metadata>
  <defs
     id="defs4245" />
  <sodipodi:namedview
     pagecolor="#ffffff"
     bordercolor="#666666"
     borderopacity="1"
     objecttolerance="10"
     gridtolerance="10"
     guidetolerance="10"
     inkscape:pageopacity="0"
     inkscape:pageshadow="2"
     inkscape:window-width="1837"
     inkscape:window-height="1018"
     id="namedview4243"
     showgrid="false"
     inkscape:zoom="0.375"
     inkscape:cx="350.66667"
     inkscape:cy="741.33333"
     inkscape:window-x="83"
     inkscape:window-y="34"
     inkscape:window-maximized="1"
     inkscape:current-layer="svg4241" />
  <g
     fill="#ffb531"
     id="g4231" />
  <g
     id="g4808">
    <path
       id="path4195"
       fill="#f98500"
       d="m56 344c-35.136719 25.097656-55.9921875 65.617188-56 108.800781v19.199219h19.199219c43.183593-.007812 83.703125-20.863281 108.800781-56zm0 0" />
    <path
       id="path4197"
       fill="#ffb531"
       d="m77 368c-13.175781 9.414062-20.996094 24.605469-21 40.800781v7.199219h7.199219c16.195312-.003906 31.386719-7.824219 40.800781-21l8-11-24-24zm0 0" />
    <path
       id="path4199"
       fill="#ffb531"
       d="m464 15.457031v-7.457031c-41.257812.015625-82.125 7.980469-120.367188 23.464844l99.199219 98.261718c13.953125-36.484374 21.125-75.210937 21.167969-114.269531zm0 0" />
    <path
       id="path4201"
       fill="#e94f4f"
       d="m343.632812 31.464844c-61.886718 24.980468-114.453124 68.617187-150.402343 124.847656l-89.230469 139.6875 72 72 128.59375-75.015625c63.378906-37.019531 112.164062-94.636719 138.230469-163.257813zm0 0" />
    <path
       id="path4203"
       fill="#de4242"
       d="m139.679688 331.679688 36.320312 36.320312 128.59375-75.015625c63.378906-37.019531 112.164062-94.636719 138.230469-163.257813l-29.953125-29.671874c-90.0625 116.640624-201.328125 191.511718-273.191406 231.625zm0 0" />
    <path
       id="path4205"
       fill="#f26666"
       d="m220.273438 188.304688-13.480469-8.609376 6.679687-10.464843c1.269532-2 2.574219-4 3.886719-5.933594l13.28125 8.917969c-1.25 1.863281-2.472656 3.738281-3.6875 5.601562zm0 0" />
    <path
       id="path4207"
       fill="#f26666"
       d="m145.28125 275.949219 51.269531-80.335938 13.488281 8.609375-51.269531 80.335938zm0 0" />
    <path
       id="path4209"
       fill="#d6d6d4"
       d="m120 312-64 32 72 72 32-64zm0 0" />
    <path
       id="path4211"
       fill="#4db7e5"
       d="m368 160c0 30.929688-25.070312 56-56 56s-56-25.070312-56-56 25.070312-56 56-56 56 25.070312 56 56zm0 0" />
    <path
       id="path4213"
       fill="#9fe4ed"
       d="m296 160h-16c0-17.671875 14.328125-32 32-32v16c-8.835938 0-16 7.164062-16 16zm0 0" />
    <path
       id="path4215"
       fill="#de4242"
       d="m116.152344 160c-17.949219-.007812-35.074219 7.523438-47.199219 20.753906l-68.953125 75.246094 80.671875-22c4.636719-1.269531 9.597656-.390625 13.511719 2.398438l32.878906 23.488281 63.824219-99.886719zm0 0" />
    <path
       id="path4217"
       fill="#cf3a3a"
       d="m213.113281 346.351562 22.472657 31.464844c2.785156 3.914063 3.667968 8.875 2.398437 13.511719l-21.984375 80.671875 75.246094-68.976562c13.226562-12.121094 20.753906-29.238282 20.753906-47.175782v-67.519531c-2.480469 1.542969-4.871094 3.199219-7.40625 4.65625zm0 0" />
    <path
       id="path4233"
       fill="#48add9"
       d="m348.800781 117.824219c-11.113281 47.054687-48.945312 70.246093-76.90625 81.167969 14.308594 14.785156 35.570313 20.527343 55.375 14.957031 19.804688-5.574219 34.953125-21.5625 39.449219-41.636719 4.496094-20.078125-2.382812-41-17.917969-54.488281zm0 0" />
    <path
       id="path4235"
       fill="#ffa912"
       d="m463.769531 25.351562c-14.785156 26.101563-34.753906 48.902344-58.671875 67l37.726563 37.375c12.730469-33.386718 19.808593-68.660156 20.945312-104.375zm0 0" />
    <path
       id="path4237"
       fill="#c9c9c7"
       d="m105.238281 393.238281 22.761719 22.761719 32-64-18.289062-18.289062zm0 0" />
    <path
       id="path4239"
       fill="#a8a8a6"
       d="m95.542969 324.230469-15.085938 7.539062 59.773438 59.773438 7.539062-15.085938zm0 0" />
  </g>
</svg>
