<svg height="480pt" viewBox="-68 0 480 480" width="480pt" xmlns="http://www.w3.org/2000/svg"><path d="m0 8h96v80h-96zm0 0" fill="#348fd9"/><path d="m96 12-76 76h76zm0 0" fill="#3086cd"/><path d="m48 248c0 26.507812 21.492188 48 48 48v-72h-48zm0 0" fill="#d6d6d4"/><path d="m59.3125 278.921875 36.6875-21.707031v-18.597656l-44.800781 26.511718c1.914062 5.019532 4.65625 9.679688 8.113281 13.792969zm0 0" fill="#c7c7c5"/><path d="m168 112h128c17.671875 0 32 14.328125 32 32v136c0 17.671875-14.328125 32-32 32h-128c-17.671875 0-32-14.328125-32-32v-136c0-17.671875 14.328125-32 32-32zm0 0" fill="#bfbfbd"/><path d="m137.839844 290.273438c4.359375 12.957031 16.488281 21.695312 30.160156 21.726562h128c17.671875 0 32-14.328125 32-32v-136c-.03125-5.707031-1.597656-11.300781-4.542969-16.191406-37.058593 89.878906-122.761719 138.214844-185.617187 162.464844zm0 0" fill="#b0b0ae"/><path d="m312 88c0 44.183594-35.816406 80-80 80s-80-35.816406-80-80 35.816406-80 80-80 80 35.816406 80 80zm0 0" fill="#4db7e5"/><path d="m312 88c0 44.183594-35.816406 80-80 80s-80-35.816406-80-80 35.816406-80 80-80 80 35.816406 80 80zm0 0" fill="#4db7e5"/><path d="m232 45.335938c36.609375 0 67.742188 16.601562 79.855469 39.871093-1.492188-43.023437-36.804688-77.132812-79.855469-77.132812s-78.363281 34.109375-79.855469 77.132812c12.113281-23.269531 43.246094-39.871093 79.855469-39.871093zm0 0" fill="#e0e0de"/><path d="m297.351562 41.953125c8.945313 12.695313 13.988282 27.730469 14.503907 43.253906-8.253907-14.269531-21.148438-25.28125-36.535157-31.199219-26.855468 47.054688-71.753906 69.527344-108.527343 80.199219 25.769531 35.210938 75.011719 43.253907 110.644531 18.074219 35.636719-25.179688 44.496094-74.28125 19.914062-110.328125zm0 0" fill="#48add9"/><path d="m275.320312 54.039062c15.386719 5.917969 28.28125 16.929688 36.535157 31.199219-.515625-15.523437-5.558594-30.554687-14.503907-43.253906l-.054687-.074219c-1.414063-2.007812-2.917969-3.949218-4.511719-5.8125l-.335937-.363281c-1.515625-1.757813-3.101563-3.449219-4.761719-5.070313-.230469-.222656-.488281-.433593-.71875-.65625l-.34375-.304687c-3.097656 8.40625-6.878906 16.546875-11.304688 24.335937zm0 0" fill="#d6d6d4"/><path d="m192 88c0-2.234375.183594-4.46875.550781-6.671875l-15.75-2.65625c-1.035156 6.175781-1.035156 12.480469 0 18.65625l15.773438-2.65625c-.375-2.203125-.566407-4.4375-.574219-6.671875zm0 0" fill="#79c6e8"/><path d="m197.34375 108-13.847656 8c6.6875 11.546875 17.265625 20.339844 29.839844 24.800781l5.328124-15.089843c-8.984374-3.183594-16.542968-9.464844-21.320312-17.710938zm0 0" fill="#79c6e8"/><path d="m168 168h128v144h-128zm0 0" fill="#e0e0de"/><path d="m168 295.664062v16.335938h128v-123.832031c-29.324219 49.242187-74.433594 87.125-128 107.496093zm0 0" fill="#d6d6d4"/><path d="m328 328h-16c-8.835938 0-16-7.164062-16-16v-144c26.507812 0 48 21.492188 48 48v96c0 8.835938-7.164062 16-16 16zm0 0" fill="#d6d6d4"/><g fill="#c7c7c5"><path d="m296 240h48v16h-48zm0 0"/><path d="m296 272h48v16h-48zm0 0"/><path d="m296 208v16h48v-8c-.015625-2.683594-.257812-5.359375-.71875-8zm0 0"/><path d="m168 400h64v16h-64zm0 0"/></g><path d="m168 312v128h-8c-8.835938 0-16 7.164062-16 16s7.164062 16 16 16h72v-160zm0 0" fill="#d6d6d4"/><path d="m168 376h64v16h-64zm0 0" fill="#c7c7c5"/><path d="m168 408h64v16h-64zm0 0" fill="#c7c7c5"/><path d="m121.6875 196.625-25.6875 51.375v48h2.335938c18.179687-.003906 34.796874-10.273438 42.929687-26.535156l26.734375-53.464844v-48c-19.613281 0-37.542969 11.082031-46.3125 28.625zm0 0" fill="#d6d6d4"/><path d="m108.421875 223.152344 7.15625-14.3125 44.800781 22.398437-7.15625 14.3125zm0 0" fill="#c7c7c5"/><path d="m96 248-3.574219 7.199219 3.574219 1.785156 40.359375 20.183594c1.875-2.390625 3.519531-4.957031 4.90625-7.664063l3.109375-6.222656-44.800781-22.402344zm0 0" fill="#c7c7c5"/><path d="m168 344h64v16h-64zm0 0" fill="#c7c7c5"/><path d="m232 400h64v16h-64zm0 0" fill="#c7c7c5"/><path d="m296 312v128h8c8.835938 0 16 7.164062 16 16s-7.164062 16-16 16h-72v-160zm0 0" fill="#d6d6d4"/><path d="m232 376h64v16h-64zm0 0" fill="#c7c7c5"/><path d="m232 408h64v16h-64zm0 0" fill="#c7c7c5"/><path d="m232 344h64v16h-64zm0 0" fill="#c7c7c5"/><path d="m88 0h16v480h-16zm0 0" fill="#bfbfbd"/><path d="m112 208v-16c0-8.835938-7.164062-16-16-16h-16c-17.671875 0-32 14.328125-32 32v16h48c8.835938 0 16-7.164062 16-16zm0 0" fill="#d6d6d4"/><path d="m200 208h64v48h-64zm0 0" fill="#ebebe9"/><path d="m200 240h64v16h-64zm0 0" fill="#c7c7c5"/><path d="m168 312h128v16h-128zm0 0" fill="#c7c7c5"/><path d="m224 312h16v160h-16zm0 0" fill="#b0b0ae"/></svg>