<?xml version="1.0"?>
<svg xmlns="http://www.w3.org/2000/svg" xmlns:xlink="http://www.w3.org/1999/xlink" version="1.1" viewBox="0 0 192 192" width="480px" height="480px"><g fill="none" fill-rule="nonzero" stroke="none" stroke-width="1" stroke-linecap="butt" stroke-linejoin="miter" stroke-miterlimit="10" stroke-dasharray="" stroke-dashoffset="0" font-family="none" font-weight="none" font-size="none" text-anchor="none" style="mix-blend-mode: normal"><path d="M0,192v-192h192v192z" fill="#3498db"/><g><g id="surface1"><path d="M164,20h-136l12,136l56,16l56,-16z" fill="#0277bd"/><path d="M96,32v127.59375l44.79688,-12.79688l10,-114.79688z" fill="#039be5"/><path d="M132.40625,52h-36.40625v16h19.59375l-1.1875,16h-18.40625v16h17.59375l-1.1875,18l-16.40625,5.59375v16.8125l31.59375,-10.40625l2.8125,-46z" fill="#ffffff"/><path d="M96,52v16h-35.59375l-1.20313,-16zM77.59375,84l0.8125,16h17.59375v-16zM79.20312,108h-16l1.20313,22l31.59375,10.40625v-16.8125l-16.40625,-5.59375z" fill="#eeeeee"/></g></g></g></svg>
