<?xml version="1.0"?>
<svg xmlns="http://www.w3.org/2000/svg" xmlns:xlink="http://www.w3.org/1999/xlink" version="1.1" viewBox="0 0 192 192" width="480px" height="480px"><g fill="none" fill-rule="nonzero" stroke="none" stroke-width="none" stroke-linecap="butt" stroke-linejoin="miter" stroke-miterlimit="10" stroke-dasharray="" stroke-dashoffset="0" font-family="none" font-weight="none" font-size="none" text-anchor="none" style="mix-blend-mode: normal"><path d="M0,192v-192h192v192z" fill="#3498db" stroke="none" stroke-width="1"/><g stroke="none" stroke-width="1"><g id="surface1"><path d="M164,20h-136l12,136l56,16l56,-16z" fill="#0277bd"/><path d="M96,32v127.59375l44.79688,-12.79688l10,-114.79688z" fill="#039be5"/><path d="M132.40625,52h-36.40625v16h19.59375l-1.1875,16h-18.40625v16h17.59375l-1.1875,18l-16.40625,5.59375v16.8125l31.59375,-10.40625l2.8125,-46z" fill="#ffffff"/><path d="M96,52v16h-35.59375l-1.20313,-16zM77.59375,84l0.8125,16h17.59375v-16zM79.20312,108h-16l1.20313,22l31.59375,10.40625v-16.8125l-16.40625,-5.59375z" fill="#eeeeee"/></g></g><g fill="#ffffff" stroke="none" stroke-width="1"><path d="M73.785,13.25h2.36c-0.22,1.88 -0.91333,3.33 -2.08,4.35c-1.17333,1.02 -2.72667,1.53 -4.66,1.53v0c-2.1,0 -3.78333,-0.75 -5.05,-2.25c-1.26667,-1.50667 -1.9,-3.52333 -1.9,-6.05v0v-1.71c0,-1.64667 0.29667,-3.09667 0.89,-4.35c0.58667,-1.25333 1.42333,-2.21667 2.51,-2.89c1.08,-0.67333 2.33333,-1.01 3.76,-1.01v0c1.88667,0 3.4,0.52667 4.54,1.58c1.14,1.05333 1.80333,2.51333 1.99,4.38v0h-2.36c-0.2,-1.41333 -0.64,-2.44 -1.32,-3.08c-0.68,-0.63333 -1.63,-0.95 -2.85,-0.95v0c-1.5,0 -2.67667,0.55333 -3.53,1.66c-0.84667,1.10667 -1.27,2.68333 -1.27,4.73v0v1.72c0,1.92667 0.40333,3.46 1.21,4.6c0.80667,1.14 1.93333,1.71 3.38,1.71v0c1.3,0 2.3,-0.29667 3,-0.89c0.69333,-0.58667 1.15333,-1.61333 1.38,-3.08zM84.575,10.97v0c-2.00667,-0.58 -3.47,-1.29 -4.39,-2.13c-0.91333,-0.84667 -1.37,-1.88667 -1.37,-3.12v0c0,-1.4 0.56,-2.55667 1.68,-3.47c1.12,-0.92 2.57333,-1.38 4.36,-1.38v0c1.22,0 2.31,0.23667 3.27,0.71c0.95333,0.47333 1.69333,1.12333 2.22,1.95c0.52667,0.83333 0.79,1.74333 0.79,2.73v0h-2.36c0,-1.08 -0.34,-1.92667 -1.02,-2.54c-0.68667,-0.61333 -1.65333,-0.92 -2.9,-0.92v0c-1.15333,0 -2.05333,0.25333 -2.7,0.76c-0.64667,0.51333 -0.97,1.22 -0.97,2.12v0c0,0.72667 0.30667,1.34 0.92,1.84c0.61333,0.5 1.66,0.95667 3.14,1.37c1.47333,0.42 2.62667,0.88 3.46,1.38c0.84,0.5 1.46,1.08333 1.86,1.75c0.4,0.66667 0.6,1.45 0.6,2.35v0c0,1.44 -0.56,2.59333 -1.68,3.46c-1.12667,0.86667 -2.63,1.3 -4.51,1.3v0c-1.22,0 -2.35667,-0.23333 -3.41,-0.7c-1.06,-0.46667 -1.87667,-1.10667 -2.45,-1.92c-0.57333,-0.81333 -0.86,-1.73667 -0.86,-2.77v0h2.35c0,1.07333 0.39667,1.92 1.19,2.54c0.79333,0.62667 1.85333,0.94 3.18,0.94v0c1.24,0 2.19,-0.25333 2.85,-0.76c0.66,-0.50667 0.99,-1.19333 0.99,-2.06c0,-0.87333 -0.30667,-1.54667 -0.92,-2.02c-0.60667,-0.48 -1.71333,-0.95 -3.32,-1.41zM99.405,10.97v0c-2.00667,-0.58 -3.47,-1.29 -4.39,-2.13c-0.91333,-0.84667 -1.37,-1.88667 -1.37,-3.12v0c0,-1.4 0.56,-2.55667 1.68,-3.47c1.12,-0.92 2.57333,-1.38 4.36,-1.38v0c1.22667,0 2.31667,0.23667 3.27,0.71c0.95333,0.47333 1.69333,1.12333 2.22,1.95c0.52667,0.83333 0.79,1.74333 0.79,2.73v0h-2.36c0,-1.08 -0.34,-1.92667 -1.02,-2.54c-0.68667,-0.61333 -1.65333,-0.92 -2.9,-0.92v0c-1.15333,0 -2.05333,0.25333 -2.7,0.76c-0.64667,0.51333 -0.97,1.22 -0.97,2.12v0c0,0.72667 0.30667,1.34 0.92,1.84c0.61333,0.5 1.66,0.95667 3.14,1.37c1.47333,0.42 2.63,0.88 3.47,1.38c0.83333,0.5 1.45,1.08333 1.85,1.75c0.40667,0.66667 0.61,1.45 0.61,2.35v0c0,1.44 -0.56333,2.59333 -1.69,3.46c-1.12,0.86667 -2.62,1.3 -4.5,1.3v0c-1.22,0 -2.36,-0.23333 -3.42,-0.7c-1.06,-0.46667 -1.87667,-1.10667 -2.45,-1.92c-0.57333,-0.81333 -0.86,-1.73667 -0.86,-2.77v0h2.36c0,1.07333 0.39667,1.92 1.19,2.54c0.79333,0.62667 1.85333,0.94 3.18,0.94v0c1.23333,0 2.18,-0.25333 2.84,-0.76c0.66,-0.50667 0.99,-1.19333 0.99,-2.06c0,-0.87333 -0.30667,-1.54667 -0.92,-2.02c-0.60667,-0.48 -1.71333,-0.95 -3.32,-1.41zM117.885,10.75v-1.85h1.7c1.06667,-0.01333 1.90667,-0.29333 2.52,-0.84c0.60667,-0.54667 0.91,-1.28333 0.91,-2.21v0c0,-2.08 -1.03667,-3.12 -3.11,-3.12v0c-0.98,0 -1.76,0.27667 -2.34,0.83c-0.58,0.56 -0.87,1.3 -0.87,2.22v0h-2.26c0,-1.40667 0.51333,-2.57667 1.54,-3.51c1.03333,-0.93333 2.34333,-1.4 3.93,-1.4v0c1.67333,0 2.98667,0.44333 3.94,1.33c0.95333,0.88667 1.43,2.12 1.43,3.7v0c0,0.77333 -0.25,1.52333 -0.75,2.25c-0.5,0.72 -1.18333,1.26 -2.05,1.62v0c0.98,0.31333 1.73667,0.82667 2.27,1.54c0.53333,0.71333 0.8,1.58667 0.8,2.62v0c0,1.6 -0.52,2.86667 -1.56,3.8c-1.04667,0.93333 -2.40333,1.4 -4.07,1.4c-1.66667,0 -3.02333,-0.45 -4.07,-1.35c-1.04667,-0.90667 -1.57,-2.1 -1.57,-3.58v0h2.27c0,0.94 0.30667,1.69 0.92,2.25c0.60667,0.56 1.42333,0.84 2.45,0.84v0c1.09333,0 1.92667,-0.28333 2.5,-0.85c0.58,-0.57333 0.87,-1.39333 0.87,-2.46v0c0,-1.03333 -0.31667,-1.82667 -0.95,-2.38c-0.63333,-0.55333 -1.55,-0.83667 -2.75,-0.85v0z"/></g><path d="M52.455,29.13v-38.26h83.09v38.26z" fill="#ff0000" stroke="#50e3c2" stroke-width="3" opacity="0"/></g></svg>
