<?xml version="1.0"?>
<svg xmlns="http://www.w3.org/2000/svg" xmlns:xlink="http://www.w3.org/1999/xlink" version="1.1" viewBox="0 0 192 192" width="480px" height="480px"><g fill="none" fill-rule="nonzero" stroke="none" stroke-width="none" stroke-linecap="butt" stroke-linejoin="miter" stroke-miterlimit="10" stroke-dasharray="" stroke-dashoffset="0" font-family="none" font-weight="none" font-size="none" text-anchor="none" style="mix-blend-mode: normal"><path d="M0,192v-192h192v192z" fill="#e67e22" stroke="none" stroke-width="1"/><g stroke="none" stroke-width="1"><g id="surface1"><path d="M164,20h-136l12,136l56,16l56,-16z" fill="#e65100"/><path d="M96,32v127.59375l44.79688,-12.79688l10,-114.79688z" fill="#ff6d00"/><path d="M96,100v-16h34.40625l-2.8125,46l-31.59375,10.40625v-16.8125l16.40625,-5.59375l1.1875,-18zM131.59375,68l1.20312,-16h-36.79688v16z" fill="#ffffff"/><path d="M96,123.59375v16.8125l-31.59375,-10.40625l-1.60938,-22h16l0.79688,10zM76.40625,68h19.59375v-16h-36.40625l2.8125,48h33.59375v-16h-18.40625z" fill="#eeeeee"/></g></g><path d="M96,192c-53.01934,0 -96,-42.98066 -96,-96v0c0,-53.01934 42.98066,-96 96,-96v0c53.01934,0 96,42.98066 96,96v0c0,53.01934 -42.98066,96 -96,96z" fill="none" stroke="none" stroke-width="1"/><path d="M96,188.16c-50.89856,0 -92.16,-41.26144 -92.16,-92.16v0c0,-50.89856 41.26144,-92.16 92.16,-92.16v0c50.89856,0 92.16,41.26144 92.16,92.16v0c0,50.89856 -41.26144,92.16 -92.16,92.16z" fill="none" stroke="none" stroke-width="1"/><g fill="#ffffff" stroke="none" stroke-width="1"><path d="M65.24,0.995v17.77h-2.35v-8.22h-8.96v8.22h-2.35v-17.77h2.35v7.64h8.96v-7.64zM81.33,0.995v1.93h-5.71v15.84h-2.33v-15.84h-5.7v-1.93zM83.97,0.995h3.03l5.81,14.5l5.81,-14.5h3.04v17.77h-2.35v-6.92l0.22,-7.47l-5.83,14.39h-1.8l-5.82,-14.36l0.23,7.44v6.92h-2.34zM108.15,0.995v15.85h8.42v1.92h-10.78v-17.77zM127.69,10.315l-1.8,-0.46l0.9,-8.86h9.11v2.08h-7.19l-0.54,4.85c0.87333,-0.51333 1.86333,-0.77 2.97,-0.77v0c1.62,0 2.90333,0.53667 3.85,1.61c0.95333,1.06667 1.43,2.51333 1.43,4.34v0c0,1.82667 -0.49333,3.26667 -1.48,4.32c-0.98667,1.05333 -2.37,1.58 -4.15,1.58v0c-1.56667,0 -2.84667,-0.43333 -3.84,-1.3c-0.99333,-0.87333 -1.56,-2.08 -1.7,-3.62v0h2.14c0.14,1.02 0.50333,1.79 1.09,2.31c0.58,0.51333 1.35,0.77 2.31,0.77v0c1.05333,0 1.88,-0.35667 2.48,-1.07c0.59333,-0.72 0.89,-1.71 0.89,-2.97v0c0,-1.18667 -0.32333,-2.14 -0.97,-2.86c-0.64667,-0.72 -1.50667,-1.08 -2.58,-1.08v0c-0.98667,0 -1.76,0.21333 -2.32,0.64v0z"/></g><path d="M41.58,29.005v-38.01h104.84v38.01z" fill="#ff0000" stroke="#50e3c2" stroke-width="3" opacity="0"/></g></svg>
