<?xml version="1.0"?>
<svg xmlns="http://www.w3.org/2000/svg" xmlns:xlink="http://www.w3.org/1999/xlink" version="1.1" viewBox="0 0 192 192" width="480px" height="480px"><g fill="none" fill-rule="nonzero" stroke="none" stroke-width="1" stroke-linecap="butt" stroke-linejoin="miter" stroke-miterlimit="10" stroke-dasharray="" stroke-dashoffset="0" font-family="none" font-weight="none" font-size="none" text-anchor="none" style="mix-blend-mode: normal"><path d="M0,192v-192h192v192z" fill="#e67e22"/><g><g id="surface1"><path d="M164,20h-136l12,136l56,16l56,-16z" fill="#e65100"/><path d="M96,32v127.59375l44.79688,-12.79688l10,-114.79688z" fill="#ff6d00"/><path d="M96,100v-16h34.40625l-2.8125,46l-31.59375,10.40625v-16.8125l16.40625,-5.59375l1.1875,-18zM131.59375,68l1.20312,-16h-36.79688v16z" fill="#ffffff"/><path d="M96,123.59375v16.8125l-31.59375,-10.40625l-1.60938,-22h16l0.79688,10zM76.40625,68h19.59375v-16h-36.40625l2.8125,48h33.59375v-16h-18.40625z" fill="#eeeeee"/></g></g></g></svg>
