<?xml version="1.0"?>
<svg xmlns="http://www.w3.org/2000/svg" xmlns:xlink="http://www.w3.org/1999/xlink" version="1.1" viewBox="0 0 192 192" width="480px" height="480px"><g fill="none" fill-rule="nonzero" stroke="none" stroke-width="1" stroke-linecap="butt" stroke-linejoin="miter" stroke-miterlimit="10" stroke-dasharray="" stroke-dashoffset="0" font-family="none" font-weight="none" font-size="none" text-anchor="none" style="mix-blend-mode: normal"><path d="M0,192v-192h192v192z" fill="#f1c40f"/><g id="Layer_1"><path d="M24,168v-144h144v144z" fill="#ffd600"/><path d="M118.152,131.788c2.768,4.496 5.776,8.804 12.148,8.804c5.352,0 8.16,-2.66 8.16,-6.34c0,-4.404 -2.904,-5.968 -8.792,-8.532l-3.228,-1.376c-9.316,-3.952 -15.512,-8.904 -15.512,-19.364c0,-9.64 7.38,-16.976 18.912,-16.976c8.212,0 14.112,2.844 18.368,10.292l-10.056,6.428c-2.212,-3.952 -4.604,-5.508 -8.312,-5.508c-3.784,0 -6.18,2.388 -6.18,5.508c0,3.856 2.4,5.416 7.94,7.804l3.228,1.376c10.98,4.676 17.172,9.452 17.172,20.188c0,11.568 -9.136,17.908 -21.4,17.908c-11.996,0 -18.808,-6.02 -22.6,-13.472z" fill="#000001"/><path d="M71.808,132.116c2.024,3.624 5.1,6.412 9.524,6.412c4.232,0 6.668,-1.672 6.668,-8.172v-42.356h13.332v44.404c0,13.468 -7.812,19.596 -19.22,19.596c-10.308,0 -17.748,-6.984 -20.78,-13.472z" fill="#000001"/></g></g></svg>
