<?xml version="1.0"?>
<svg xmlns="http://www.w3.org/2000/svg" xmlns:xlink="http://www.w3.org/1999/xlink" version="1.1" viewBox="0 0 192 192" width="480px" height="480px"><g fill="none" fill-rule="nonzero" stroke="none" stroke-width="none" stroke-linecap="butt" stroke-linejoin="miter" stroke-miterlimit="10" stroke-dasharray="" stroke-dashoffset="0" font-family="none" font-weight="none" font-size="none" text-anchor="none" style="mix-blend-mode: normal"><path d="M0,192v-192h192v192z" fill="#f1c40f" stroke="none" stroke-width="1"/><g id="Layer_1" stroke="none" stroke-width="1"><path d="M24,168v-144h144v144z" fill="#ffd600"/><path d="M118.152,131.788c2.768,4.496 5.776,8.804 12.148,8.804c5.352,0 8.16,-2.66 8.16,-6.34c0,-4.404 -2.904,-5.968 -8.792,-8.532l-3.228,-1.376c-9.316,-3.952 -15.512,-8.904 -15.512,-19.364c0,-9.64 7.38,-16.976 18.912,-16.976c8.212,0 14.112,2.844 18.368,10.292l-10.056,6.428c-2.212,-3.952 -4.604,-5.508 -8.312,-5.508c-3.784,0 -6.18,2.388 -6.18,5.508c0,3.856 2.4,5.416 7.94,7.804l3.228,1.376c10.98,4.676 17.172,9.452 17.172,20.188c0,11.568 -9.136,17.908 -21.4,17.908c-11.996,0 -18.808,-6.02 -22.6,-13.472z" fill="#000001"/><path d="M71.808,132.116c2.024,3.624 5.1,6.412 9.524,6.412c4.232,0 6.668,-1.672 6.668,-8.172v-42.356h13.332v44.404c0,13.468 -7.812,19.596 -19.22,19.596c-10.308,0 -17.748,-6.984 -20.78,-13.472z" fill="#000001"/></g><g fill="#ffffff" stroke="none" stroke-width="1"><path d="M33.95,14.585v-12.11h2.26v12.08c0,1.63333 -0.49,2.91 -1.47,3.83c-0.98,0.92 -2.28667,1.38 -3.92,1.38v0c-1.69333,0 -3.01333,-0.43333 -3.96,-1.3c-0.94667,-0.86667 -1.42,-2.08 -1.42,-3.64v0h2.25c0,0.97333 0.26667,1.73333 0.8,2.28c0.54,0.54667 1.31667,0.82 2.33,0.82v0c0.92667,0 1.68,-0.29 2.26,-0.87c0.57333,-0.58667 0.86333,-1.41 0.87,-2.47zM50.84,19.535l-1.63,-4.45h-7.15l-1.61,4.45h-2.32l6.52,-17.06h1.97l6.52,17.06zM45.63,5.245l-2.89,7.99h5.8zM55.22,2.475l4.85,14.07l4.88,-14.07h2.46l-6.33,17.06h-1.99l-6.32,-17.06zM79.86,19.535l-1.63,-4.45h-7.14l-1.61,4.45h-2.32l6.52,-17.06h1.96l6.53,17.06zM74.66,5.245l-2.89,7.99h5.8zM89.5,11.925v0c-1.93333,-0.55333 -3.34,-1.23333 -4.22,-2.04c-0.88,-0.80667 -1.32,-1.80333 -1.32,-2.99v0c0,-1.34667 0.54,-2.46 1.62,-3.34c1.07333,-0.88 2.47,-1.32 4.19,-1.32v0c1.16667,0 2.21,0.22667 3.13,0.68c0.92,0.45333 1.63,1.08 2.13,1.88c0.50667,0.79333 0.76,1.66333 0.76,2.61v0h-2.26c0,-1.03333 -0.33,-1.84333 -0.99,-2.43c-0.65333,-0.59333 -1.57667,-0.89 -2.77,-0.89v0c-1.11333,0 -1.98,0.24667 -2.6,0.74c-0.62,0.48667 -0.93,1.16333 -0.93,2.03v0c0,0.69333 0.29333,1.28 0.88,1.76c0.59333,0.48 1.59667,0.92 3.01,1.32c1.42,0.4 2.53,0.84 3.33,1.32c0.8,0.48 1.39333,1.04 1.78,1.68c0.38667,0.64 0.58,1.39333 0.58,2.26v0c0,1.38667 -0.53667,2.49667 -1.61,3.33c-1.08,0.82667 -2.52333,1.24 -4.33,1.24v0c-1.17333,0 -2.26667,-0.22333 -3.28,-0.67c-1.01333,-0.44667 -1.79667,-1.06333 -2.35,-1.85c-0.54667,-0.78 -0.82,-1.66667 -0.82,-2.66v0h2.26c0,1.03333 0.38,1.85 1.14,2.45c0.76,0.59333 1.77667,0.89 3.05,0.89v0c1.18667,0 2.09667,-0.24 2.73,-0.72c0.63333,-0.48667 0.95,-1.14667 0.95,-1.98c0,-0.84 -0.29333,-1.48667 -0.88,-1.94c-0.58667,-0.46 -1.64667,-0.91333 -3.18,-1.36zM109,14.125h2.26c-0.21333,1.8 -0.88,3.19 -2,4.17c-1.12,0.98 -2.61,1.47 -4.47,1.47v0c-2.01333,0 -3.63,-0.72 -4.85,-2.16c-1.21333,-1.44667 -1.82,-3.38 -1.82,-5.8v0v-1.64c0,-1.58667 0.28333,-2.98333 0.85,-4.19c0.56667,-1.2 1.37,-2.12333 2.41,-2.77c1.04,-0.64667 2.24333,-0.97 3.61,-0.97v0c1.81333,0 3.26667,0.50667 4.36,1.52c1.09333,1.01333 1.73,2.41333 1.91,4.2v0h-2.26c-0.2,-1.36 -0.62667,-2.34333 -1.28,-2.95c-0.64667,-0.61333 -1.55667,-0.92 -2.73,-0.92v0c-1.44,0 -2.56667,0.53333 -3.38,1.6c-0.82,1.06 -1.23,2.57 -1.23,4.53v0v1.66c0,1.84667 0.38667,3.31667 1.16,4.41c0.77333,1.09333 1.85667,1.64 3.25,1.64v0c1.24667,0 2.20667,-0.28333 2.88,-0.85c0.66667,-0.56 1.11,-1.54333 1.33,-2.95zM124.29,19.535l-3.7,-6.9h-4.01v6.9h-2.26v-17.06h5.64c1.92667,0 3.40667,0.43667 4.44,1.31c1.03333,0.87333 1.55,2.14667 1.55,3.82v0c0,1.06 -0.28667,1.98667 -0.86,2.78c-0.57333,0.78667 -1.37,1.37667 -2.39,1.77v0l4,7.24v0.14zM116.58,4.325v6.47h3.45c1.12,0 2.01,-0.29 2.67,-0.87c0.66,-0.58 0.99,-1.35333 0.99,-2.32v0c0,-1.05333 -0.31333,-1.86333 -0.94,-2.43c-0.63333,-0.56 -1.54333,-0.84333 -2.73,-0.85v0zM131.52,2.475v17.06h-2.25v-17.06zM141.9,12.855h-4.02v6.68h-2.25v-17.06h6.3c1.86667,0 3.32667,0.47667 4.38,1.43c1.06,0.95333 1.59,2.21333 1.59,3.78v0c0,1.66 -0.51667,2.93667 -1.55,3.83c-1.03333,0.89333 -2.51667,1.34 -4.45,1.34zM137.88,4.325v6.69h4.05c1.2,0 2.12,-0.28333 2.76,-0.85c0.64,-0.56667 0.96,-1.38333 0.96,-2.45v0c0,-1.02 -0.32,-1.83333 -0.96,-2.44c-0.64,-0.61333 -1.52,-0.93 -2.64,-0.95v0zM162.56,2.475v1.85h-5.48v15.21h-2.24v-15.21h-5.47v-1.85z"/></g><path d="M15.44,29.765v-37.53h157.12v37.53z" fill="#ff0000" stroke="#50e3c2" stroke-width="3" opacity="0"/></g></svg>
