<?xml version="1.0"?>
<svg xmlns="http://www.w3.org/2000/svg" xmlns:xlink="http://www.w3.org/1999/xlink" version="1.1" viewBox="0 0 192 192" width="480px" height="480px"><g fill="none" fill-rule="nonzero" stroke="none" stroke-width="1" stroke-linecap="butt" stroke-linejoin="miter" stroke-miterlimit="10" stroke-dasharray="" stroke-dashoffset="0" font-family="none" font-weight="none" font-size="none" text-anchor="none" style="mix-blend-mode: normal"><path d="M0,192v-192h192v192z" fill="#2ecc71"/><g><g id="surface1"><path d="M68.8125,76.48438l-19.625,10.85938c-0.73438,0.40625 -1.1875,1.15625 -1.1875,1.96875v21.73438c0,0.8125 0.45312,1.5625 1.1875,1.96875l19.625,10.875c0.73438,0.39063 1.64062,0.39063 2.375,0l19.625,-10.875c0.73438,-0.40625 1.1875,-1.15625 1.1875,-1.96875v-21.73438c0,-0.8125 -0.45312,-1.5625 -1.1875,-1.96875l-19.625,-10.85938c-0.375,-0.20312 -0.78125,-0.29688 -1.1875,-0.29688c-0.40625,0 -0.8125,0.09375 -1.1875,0.29688" fill="#388e3c"/><path d="M169.79688,96.04688l-3.26562,1.8125c-0.125,0.0625 -0.1875,0.1875 -0.1875,0.32812v3.625c0,0.14062 0.0625,0.26562 0.1875,0.32812l3.26562,1.8125c0.125,0.0625 0.28125,0.0625 0.40625,0l3.26563,-1.8125c0.125,-0.0625 0.20312,-0.1875 0.20312,-0.32812v-3.625c0,-0.14062 -0.07812,-0.26562 -0.20312,-0.32812l-3.26563,-1.8125c-0.0625,-0.03125 -0.14062,-0.04688 -0.20312,-0.04688c-0.0625,0 -0.14062,0.01562 -0.20312,0.04688" fill="#388e3c"/><path d="M143,53.45312l-9.54688,-5.32812c-0.3125,-0.17188 -0.67187,-0.17188 -0.96875,0.01562c-0.29688,0.17188 -0.48438,0.48438 -0.48438,0.82813v32.21875l-8.8125,-4.89062c-0.375,-0.20312 -0.78125,-0.29688 -1.1875,-0.29688c-0.40625,0 -0.8125,0.09375 -1.1875,0.29688l-19.625,10.85938c-0.73438,0.40625 -1.1875,1.15625 -1.1875,1.96875v21.73438c0,0.8125 0.45312,1.5625 1.1875,1.96875l19.625,10.875c0.73438,0.39063 1.64062,0.39063 2.375,0l19.625,-10.875c0.73438,-0.40625 1.1875,-1.15625 1.1875,-1.96875v-55.70312c0,-0.70313 -0.39062,-1.35938 -1,-1.70313zM131.46875,105.82812l-8.92188,4.9375c-0.32812,0.1875 -0.75,0.1875 -1.07812,0l-8.92188,-4.9375c-0.34375,-0.1875 -0.54688,-0.53125 -0.54688,-0.89062v-9.875c0,-0.375 0.20312,-0.71875 0.54688,-0.90625l8.92188,-4.9375h-0.01563c0.17188,-0.09375 0.35938,-0.125 0.54688,-0.125c0.1875,0 0.375,0.04687 0.54688,0.125l8.90625,4.9375c0.34375,0.1875 0.54688,0.53125 0.54688,0.90625v9.875c0,0.35938 -0.20312,0.70312 -0.53125,0.89062z" fill="#37474f"/><path d="M68.8125,76.48438l-20.8125,34.5625c0,0.8125 0.45312,1.5625 1.1875,1.96875l19.625,10.875c0.73438,0.39063 1.64062,0.39063 2.375,0l20.8125,-34.57812c0,-0.8125 -0.45312,-1.5625 -1.1875,-1.96875l-19.625,-10.85938c-0.375,-0.20312 -0.78125,-0.29688 -1.1875,-0.29688c-0.40625,0 -0.8125,0.09375 -1.1875,0.29688" fill="#2e7d32"/><path d="M68.8125,76.48438l-19.625,10.85938c-0.73438,0.40625 -1.1875,1.15625 -1.1875,1.96875l20.8125,34.57812c0.73438,0.39063 1.64062,0.39063 2.375,0l19.625,-10.875c0.73438,-0.40625 1.1875,-1.15625 1.1875,-1.96875l-20.8125,-34.5625c-0.375,-0.20312 -0.78125,-0.29688 -1.1875,-0.29688c-0.40625,0 -0.8125,0.09375 -1.1875,0.29688" fill="#4caf50"/><path d="M190.8125,87.15625l-19.625,-10.85938c-0.375,-0.20312 -0.78125,-0.29688 -1.1875,-0.29688c-0.40625,0 -0.8125,0.09375 -1.1875,0.29688l-19.625,10.85938c-0.73438,0.40625 -1.1875,1.1875 -1.1875,2.01562v21.64062c0,0.84375 0.45312,1.60938 1.1875,2.01562l19.625,10.875c0.75,0.40625 1.64062,0.40625 2.375,0l9.0625,-5.01562c0.82812,-0.45312 0.8125,-1.64062 -0.01562,-2.10938l-19.6875,-10.73437c-0.34375,-0.20313 -0.54688,-0.54688 -0.54688,-0.92188v-9.85938c0,-0.375 0.20312,-0.70312 0.51562,-0.89062l8.9375,-4.9375c0.17188,-0.09375 0.35938,-0.14062 0.54688,-0.14062c0.1875,0 0.375,0.04687 0.53125,0.14062l8.9375,4.95312c0.32812,0.17188 0.53125,0.51562 0.53125,0.875v8.04688c0,0.34375 0.1875,0.67188 0.48438,0.84375c0.29688,0.15625 0.65625,0.15625 0.96875,-0.01562l9.59375,-5.5625c0.57812,-0.34375 0.95312,-0.98438 0.95312,-1.67188v-7.51562c0,-0.84375 -0.45312,-1.625 -1.1875,-2.03125z" fill="#37474f"/><path d="M42.8125,87.15625l-19.625,-10.85938c-0.375,-0.20312 -0.78125,-0.29688 -1.1875,-0.29688c-0.40625,0 -0.8125,0.09375 -1.1875,0.29688l-19.625,10.85938c-0.73438,0.40625 -1.1875,1.1875 -1.1875,2.01562v29.85938c0,0.34375 0.1875,0.67187 0.48438,0.84375c0.29688,0.17188 0.67188,0.17188 0.96875,0l9.59375,-5.57812c0.59375,-0.34375 0.95312,-0.98438 0.95312,-1.67188v-17.5625c0,-0.375 0.20312,-0.71875 0.51562,-0.89062l8.9375,-4.9375c0.17188,-0.09375 0.35938,-0.14062 0.54688,-0.14062c0.1875,0 0.375,0.04687 0.54688,0.14062l8.9375,4.9375c0.3125,0.1875 0.51562,0.51562 0.51562,0.89062v17.5625c0,0.6875 0.35938,1.32812 0.95312,1.67188l9.59375,5.57812c0.3125,0.17188 0.67188,0.17188 0.96875,0c0.29688,-0.17188 0.48438,-0.5 0.48438,-0.84375v-29.84375c0,-0.84375 -0.45312,-1.625 -1.1875,-2.03125z" fill="#37474f"/></g></g></g></svg>
