<?xml version="1.0"?>
<svg xmlns="http://www.w3.org/2000/svg" xmlns:xlink="http://www.w3.org/1999/xlink" version="1.1" viewBox="0 0 192 192" width="480px" height="480px"><g fill="none" fill-rule="nonzero" stroke="none" stroke-width="none" stroke-linecap="butt" stroke-linejoin="miter" stroke-miterlimit="10" stroke-dasharray="" stroke-dashoffset="0" font-family="none" font-weight="none" font-size="none" text-anchor="none" style="mix-blend-mode: normal"><path d="M0,192v-192h192v192z" fill="#2ecc71" stroke="none" stroke-width="1"/><g stroke="none" stroke-width="1"><g id="surface1"><path d="M68.8125,76.48438l-19.625,10.85938c-0.73438,0.40625 -1.1875,1.15625 -1.1875,1.96875v21.73438c0,0.8125 0.45312,1.5625 1.1875,1.96875l19.625,10.875c0.73438,0.39063 1.64062,0.39063 2.375,0l19.625,-10.875c0.73438,-0.40625 1.1875,-1.15625 1.1875,-1.96875v-21.73438c0,-0.8125 -0.45312,-1.5625 -1.1875,-1.96875l-19.625,-10.85938c-0.375,-0.20312 -0.78125,-0.29688 -1.1875,-0.29688c-0.40625,0 -0.8125,0.09375 -1.1875,0.29688" fill="#388e3c"/><path d="M169.79688,96.04688l-3.26562,1.8125c-0.125,0.0625 -0.1875,0.1875 -0.1875,0.32812v3.625c0,0.14062 0.0625,0.26562 0.1875,0.32812l3.26562,1.8125c0.125,0.0625 0.28125,0.0625 0.40625,0l3.26563,-1.8125c0.125,-0.0625 0.20312,-0.1875 0.20312,-0.32812v-3.625c0,-0.14062 -0.07812,-0.26562 -0.20312,-0.32812l-3.26563,-1.8125c-0.0625,-0.03125 -0.14062,-0.04688 -0.20312,-0.04688c-0.0625,0 -0.14062,0.01562 -0.20312,0.04688" fill="#388e3c"/><path d="M143,53.45312l-9.54688,-5.32812c-0.3125,-0.17188 -0.67187,-0.17188 -0.96875,0.01562c-0.29688,0.17188 -0.48438,0.48438 -0.48438,0.82813v32.21875l-8.8125,-4.89062c-0.375,-0.20312 -0.78125,-0.29688 -1.1875,-0.29688c-0.40625,0 -0.8125,0.09375 -1.1875,0.29688l-19.625,10.85938c-0.73438,0.40625 -1.1875,1.15625 -1.1875,1.96875v21.73438c0,0.8125 0.45312,1.5625 1.1875,1.96875l19.625,10.875c0.73438,0.39063 1.64062,0.39063 2.375,0l19.625,-10.875c0.73438,-0.40625 1.1875,-1.15625 1.1875,-1.96875v-55.70312c0,-0.70313 -0.39062,-1.35938 -1,-1.70313zM131.46875,105.82812l-8.92188,4.9375c-0.32812,0.1875 -0.75,0.1875 -1.07812,0l-8.92188,-4.9375c-0.34375,-0.1875 -0.54688,-0.53125 -0.54688,-0.89062v-9.875c0,-0.375 0.20312,-0.71875 0.54688,-0.90625l8.92188,-4.9375h-0.01563c0.17188,-0.09375 0.35938,-0.125 0.54688,-0.125c0.1875,0 0.375,0.04687 0.54688,0.125l8.90625,4.9375c0.34375,0.1875 0.54688,0.53125 0.54688,0.90625v9.875c0,0.35938 -0.20312,0.70312 -0.53125,0.89062z" fill="#37474f"/><path d="M68.8125,76.48438l-20.8125,34.5625c0,0.8125 0.45312,1.5625 1.1875,1.96875l19.625,10.875c0.73438,0.39063 1.64062,0.39063 2.375,0l20.8125,-34.57812c0,-0.8125 -0.45312,-1.5625 -1.1875,-1.96875l-19.625,-10.85938c-0.375,-0.20312 -0.78125,-0.29688 -1.1875,-0.29688c-0.40625,0 -0.8125,0.09375 -1.1875,0.29688" fill="#2e7d32"/><path d="M68.8125,76.48438l-19.625,10.85938c-0.73438,0.40625 -1.1875,1.15625 -1.1875,1.96875l20.8125,34.57812c0.73438,0.39063 1.64062,0.39063 2.375,0l19.625,-10.875c0.73438,-0.40625 1.1875,-1.15625 1.1875,-1.96875l-20.8125,-34.5625c-0.375,-0.20312 -0.78125,-0.29688 -1.1875,-0.29688c-0.40625,0 -0.8125,0.09375 -1.1875,0.29688" fill="#4caf50"/><path d="M190.8125,87.15625l-19.625,-10.85938c-0.375,-0.20312 -0.78125,-0.29688 -1.1875,-0.29688c-0.40625,0 -0.8125,0.09375 -1.1875,0.29688l-19.625,10.85938c-0.73438,0.40625 -1.1875,1.1875 -1.1875,2.01562v21.64062c0,0.84375 0.45312,1.60938 1.1875,2.01562l19.625,10.875c0.75,0.40625 1.64062,0.40625 2.375,0l9.0625,-5.01562c0.82812,-0.45312 0.8125,-1.64062 -0.01562,-2.10938l-19.6875,-10.73437c-0.34375,-0.20313 -0.54688,-0.54688 -0.54688,-0.92188v-9.85938c0,-0.375 0.20312,-0.70312 0.51562,-0.89062l8.9375,-4.9375c0.17188,-0.09375 0.35938,-0.14062 0.54688,-0.14062c0.1875,0 0.375,0.04687 0.53125,0.14062l8.9375,4.95312c0.32812,0.17188 0.53125,0.51562 0.53125,0.875v8.04688c0,0.34375 0.1875,0.67188 0.48438,0.84375c0.29688,0.15625 0.65625,0.15625 0.96875,-0.01562l9.59375,-5.5625c0.57812,-0.34375 0.95312,-0.98438 0.95312,-1.67188v-7.51562c0,-0.84375 -0.45312,-1.625 -1.1875,-2.03125z" fill="#37474f"/><path d="M42.8125,87.15625l-19.625,-10.85938c-0.375,-0.20312 -0.78125,-0.29688 -1.1875,-0.29688c-0.40625,0 -0.8125,0.09375 -1.1875,0.29688l-19.625,10.85938c-0.73438,0.40625 -1.1875,1.1875 -1.1875,2.01562v29.85938c0,0.34375 0.1875,0.67187 0.48438,0.84375c0.29688,0.17188 0.67188,0.17188 0.96875,0l9.59375,-5.57812c0.59375,-0.34375 0.95312,-0.98438 0.95312,-1.67188v-17.5625c0,-0.375 0.20312,-0.71875 0.51562,-0.89062l8.9375,-4.9375c0.17188,-0.09375 0.35938,-0.14062 0.54688,-0.14062c0.1875,0 0.375,0.04687 0.54688,0.14062l8.9375,4.9375c0.3125,0.1875 0.51562,0.51562 0.51562,0.89062v17.5625c0,0.6875 0.35938,1.32812 0.95312,1.67188l9.59375,5.57812c0.3125,0.17188 0.67188,0.17188 0.96875,0c0.29688,-0.17188 0.48438,-0.5 0.48438,-0.84375v-29.84375c0,-0.84375 -0.45312,-1.625 -1.1875,-2.03125z" fill="#37474f"/></g></g><g fill="#ffffff" stroke="none" stroke-width="1"><path d="M58.945,1.12v17.77h-2.35l-8.95,-13.7v13.7h-2.36v-17.77h2.36l8.97,13.75v-13.75zM76.785,9.45v1.13c0,1.74 -0.29333,3.26 -0.88,4.56c-0.58667,1.29333 -1.41667,2.28333 -2.49,2.97c-1.07333,0.68 -2.32667,1.02 -3.76,1.02v0c-1.4,0 -2.64,-0.34333 -3.72,-1.03c-1.08667,-0.68667 -1.93,-1.66667 -2.53,-2.94c-0.59333,-1.27333 -0.9,-2.74667 -0.92,-4.42v0v-1.29c0,-1.70667 0.29667,-3.21333 0.89,-4.52c0.59333,-1.31333 1.43333,-2.31667 2.52,-3.01c1.08667,-0.7 2.33,-1.05 3.73,-1.05v0c1.42667,0 2.68333,0.34333 3.77,1.03c1.08667,0.69333 1.92333,1.69 2.51,2.99c0.58667,1.30667 0.88,2.82667 0.88,4.56zM74.455,10.75v-1.32c0,-2.10667 -0.42333,-3.72333 -1.27,-4.85c-0.84667,-1.12667 -2.03333,-1.69 -3.56,-1.69v0c-1.48,0 -2.64333,0.56333 -3.49,1.69c-0.85333,1.12667 -1.29333,2.69 -1.32,4.69v0v1.31c0,2.04 0.43,3.64333 1.29,4.81c0.86,1.16667 2.04333,1.75 3.55,1.75v0c1.51333,0 2.68333,-0.55 3.51,-1.65c0.83333,-1.1 1.26333,-2.68 1.29,-4.74zM85.215,18.89h-4.92v-17.77h5.02c1.54667,0 2.91333,0.34 4.1,1.02c1.18667,0.68667 2.10333,1.66 2.75,2.92c0.64667,1.26 0.97667,2.71 0.99,4.35v0v1.13c0,1.68 -0.32333,3.15 -0.97,4.41c-0.64667,1.26 -1.57,2.22667 -2.77,2.9c-1.20667,0.68 -2.60667,1.02667 -4.2,1.04zM85.375,3.05h-2.73v13.92h2.46c1.80667,0 3.21333,-0.56 4.22,-1.68c1.00667,-1.12667 1.51,-2.72667 1.51,-4.8v0v-1.04c0,-2.01333 -0.47333,-3.58 -1.42,-4.7c-0.95333,-1.12 -2.3,-1.68667 -4.04,-1.7zM106.735,8.76v1.91h-7.7v6.3h8.95v1.92h-11.29v-17.77h11.17v1.93h-8.83v5.71zM124.535,13.74v-12.62h2.36v12.58c0,1.7 -0.51,3.03 -1.53,3.99c-1.02667,0.96 -2.39,1.44 -4.09,1.44v0c-1.76667,0 -3.14,-0.45 -4.12,-1.35c-0.98667,-0.90667 -1.48,-2.17333 -1.48,-3.8v0h2.34c0,1.02 0.28,1.81333 0.84,2.38c0.55333,0.57333 1.36,0.86 2.42,0.86v0c0.96667,0 1.75,-0.30667 2.35,-0.92c0.6,-0.60667 0.90333,-1.46 0.91,-2.56zM136.125,10.97v0c-2.01333,-0.58 -3.47667,-1.29 -4.39,-2.13c-0.92,-0.84667 -1.38,-1.88667 -1.38,-3.12v0c0,-1.4 0.56,-2.55667 1.68,-3.47c1.12,-0.92 2.57667,-1.38 4.37,-1.38v0c1.22,0 2.30667,0.23667 3.26,0.71c0.96,0.47333 1.7,1.12333 2.22,1.95c0.52667,0.83333 0.79,1.74333 0.79,2.73v0h-2.36c0,-1.08 -0.34,-1.92667 -1.02,-2.54c-0.68667,-0.61333 -1.65,-0.92 -2.89,-0.92v0c-1.16,0 -2.06333,0.25333 -2.71,0.76c-0.64667,0.51333 -0.97,1.22 -0.97,2.12v0c0,0.72667 0.30667,1.34 0.92,1.84c0.62,0.5 1.66667,0.95667 3.14,1.37c1.48,0.42 2.63667,0.88 3.47,1.38c0.83333,0.5 1.45,1.08333 1.85,1.75c0.40667,0.66667 0.61,1.45 0.61,2.35v0c0,1.44 -0.56333,2.59333 -1.69,3.46c-1.12,0.86667 -2.62,1.3 -4.5,1.3v0c-1.22,0 -2.36,-0.23333 -3.42,-0.7c-1.06,-0.46667 -1.87667,-1.10667 -2.45,-1.92c-0.57333,-0.81333 -0.86,-1.73667 -0.86,-2.77v0h2.36c0,1.07333 0.39667,1.92 1.19,2.54c0.79333,0.62667 1.85333,0.94 3.18,0.94v0c1.23333,0 2.18,-0.25333 2.84,-0.76c0.66,-0.50667 0.99,-1.19333 0.99,-2.06c0,-0.87333 -0.30333,-1.54667 -0.91,-2.02c-0.61333,-0.48 -1.72,-0.95 -3.32,-1.41z"/></g><path d="M35.285,29.13v-38.26h117.43v38.26z" fill="#ff0000" stroke="#50e3c2" stroke-width="3" opacity="0"/></g></svg>
