<?xml version="1.0"?>
<svg xmlns="http://www.w3.org/2000/svg" height="512px" viewBox="0 -2 511.9995 511" width="512px" class=""><g><path d="m116.988281 85.792969h117.402344c4.144531 0 7.5-3.359375 7.5-7.503907 0-4.140624-3.355469-7.5-7.5-7.5h-117.402344c-4.140625 0-7.5 3.359376-7.5 7.5 0 4.144532 3.359375 7.503907 7.5 7.503907zm0 0" data-original="#000000" class="active-path" data-old_color="#FFF8F8" fill="#FFF9F9"/><path d="m360.953125 162.011719h-188.429687c-4.144532 0-7.5 3.359375-7.5 7.5 0 4.144531 3.355468 7.5 7.5 7.5h188.429687c4.144531 0 7.5-3.355469 7.5-7.5 0-4.140625-3.355469-7.5-7.5-7.5zm0 0" data-original="#000000" class="active-path" data-old_color="#FFF8F8" fill="#FFF9F9"/><path d="m116.988281 177.011719h20.628907c4.144531 0 7.5-3.355469 7.5-7.5 0-4.140625-3.355469-7.5-7.5-7.5h-20.628907c-4.140625 0-7.5 3.359375-7.5 7.5 0 4.144531 3.359375 7.5 7.5 7.5zm0 0" data-original="#000000" class="active-path" data-old_color="#FFF8F8" fill="#FFF9F9"/><path d="m368.453125 222.125c0-4.144531-3.355469-7.5-7.5-7.5h-243.964844c-4.140625 0-7.5 3.355469-7.5 7.5 0 4.140625 3.359375 7.5 7.5 7.5h243.964844c4.144531 0 7.5-3.359375 7.5-7.5zm0 0" data-original="#000000" class="active-path" data-old_color="#FFF8F8" fill="#FFF9F9"/><path d="m305.527344 274.734375c0-4.140625-3.359375-7.5-7.5-7.5h-181.039063c-4.140625 0-7.5 3.359375-7.5 7.5s3.359375 7.5 7.5 7.5h181.039063c4.140625 0 7.5-3.359375 7.5-7.5zm0 0" data-original="#000000" class="active-path" data-old_color="#FFF8F8" fill="#FFF9F9"/><path d="m116.988281 421.941406c-4.140625 0-7.5 3.359375-7.5 7.5 0 4.144532 3.359375 7.5 7.5 7.5h58.601563c4.144531 0 7.5-3.355468 7.5-7.5 0-4.140625-3.355469-7.5-7.5-7.5zm0 0" data-original="#000000" class="active-path" data-old_color="#FFF8F8" fill="#FFF9F9"/><path d="m412.390625 320.425781c-4.144531 0-7.5 3.355469-7.5 7.5v159.4375c0 2.421875-1.96875 4.394531-4.394531 4.394531h-351.148438c-2.421875 0-4.390625-1.96875-4.390625-4.394531v-22.417969h6.074219c13.167969 0 23.878906-10.714843 23.878906-23.882812s-10.710937-23.878906-23.878906-23.878906h-6.074219v-27.210938h6.074219c13.167969 0 23.878906-10.714844 23.878906-23.882812 0-13.167969-10.710937-23.878906-23.878906-23.878906h-6.074219v-27.214844h6.074219c13.167969 0 23.878906-10.710938 23.878906-23.878906 0-13.167969-10.710937-23.882813-23.878906-23.882813h-6.074219v-27.210937h6.074219c13.167969 0 23.878906-10.710938 23.878906-23.878907s-10.710937-23.882812-23.878906-23.882812h-6.074219v-27.210938h6.074219c13.167969 0 23.878906-10.714843 23.878906-23.882812s-10.710937-23.878907-23.878906-23.878907h-6.074219v-27.214843h6.074219c13.167969 0 23.878906-10.714844 23.878906-23.878907 0-13.171874-10.710937-23.882812-23.878906-23.882812h-6.074219v-22.421875c0-2.417969 1.96875-4.390625 4.390625-4.390625h351.152344c2.421875 0 4.390625 1.96875 4.390625 4.390625v163.304687c0 4.140626 3.359375 7.5 7.5 7.5 4.144531 0 7.5-3.359374 7.5-7.5v-163.304687c0-10.691406-8.699219-19.390625-19.390625-19.390625h-351.152344c-10.691406 0-19.390625 8.699219-19.390625 19.390625v22.421875h-6.074219c-13.167968 0-23.882812 10.710938-23.882812 23.882812 0 13.164063 10.714844 23.878907 23.882812 23.878907h6.074219v27.210937h-6.074219c-13.167968 0-23.882812 10.714844-23.882812 23.882813s10.714844 23.882812 23.882812 23.882812h6.074219v27.210938h-6.074219c-13.167968 0-23.882812 10.710937-23.882812 23.878906s10.714844 23.882813 23.882812 23.882813h6.074219v27.210937h-6.074219c-13.167968 0-23.882812 10.714844-23.882812 23.882813 0 13.164062 10.714844 23.878906 23.882812 23.878906h6.074219v27.210937h-6.074219c-13.167968 0-23.882812 10.714844-23.882812 23.882813 0 13.167968 10.714844 23.878906 23.882812 23.878906h6.074219v27.214844h-6.074219c-13.167968 0-23.882812 10.710937-23.882812 23.878906s10.714844 23.882812 23.882812 23.882812h6.074219v22.417969c0 10.695313 8.699219 19.394531 19.390625 19.394531h351.152344c10.691406 0 19.390625-8.699218 19.390625-19.394531v-159.4375c0-4.144531-3.359375-7.5-7.5-7.5zm-388.507813-245.351562c-4.898437 0-8.882812-3.984375-8.882812-8.878907 0-4.898437 3.984375-8.882812 8.882812-8.882812h27.148438c4.894531 0 8.878906 3.984375 8.878906 8.882812 0 4.894532-3.984375 8.878907-8.878906 8.878907zm0 74.976562c-4.898437 0-8.882812-3.984375-8.882812-8.882812 0-4.898438 3.984375-8.878907 8.882812-8.878907h27.148438c4.894531 0 8.878906 3.980469 8.878906 8.878907 0 4.898437-3.984375 8.882812-8.878906 8.882812zm0 74.972657c-4.898437 0-8.882812-3.984376-8.882812-8.882813 0-4.894531 3.984375-8.878906 8.882812-8.878906h27.148438c4.894531 0 8.878906 3.984375 8.878906 8.878906 0 4.898437-3.984375 8.882813-8.878906 8.882813zm0 74.972656c-4.898437 0-8.882812-3.984375-8.882812-8.878906 0-4.898438 3.984375-8.882813 8.882812-8.882813h27.148438c4.894531 0 8.878906 3.984375 8.878906 8.882813 0 4.894531-3.984375 8.878906-8.878906 8.878906zm0 74.976562c-4.898437 0-8.882812-3.984375-8.882812-8.882812 0-4.894532 3.984375-8.878906 8.882812-8.878906h27.148438c4.894531 0 8.878906 3.984374 8.878906 8.878906 0 4.898437-3.984375 8.882812-8.878906 8.882812zm0 74.972656c-4.898437 0-8.882812-3.984374-8.882812-8.882812 0-4.894531 3.984375-8.878906 8.882812-8.878906h27.148438c4.894531 0 8.878906 3.984375 8.878906 8.878906 0 4.898438-3.984375 8.882812-8.878906 8.882812zm0 0" data-original="#000000" class="active-path" data-old_color="#FFF8F8" fill="#FFF9F9"/><path d="m503.371094 169.175781-5.613282-5.613281c-5.574218-5.574219-12.984374-8.644531-20.867187-8.644531s-15.292969 3.070312-20.867187 8.644531l-223.335938 223.332031c-4.949219 4.949219-9.066406 10.625-12.238281 16.863281l-25.378907 49.90625c-2.664062 5.234376-1.660156 11.546876 2.492188 15.703126.328125.324218.664062.632812 1.015625.917968 2.390625 1.957032 5.324219 2.988282 8.308594 3.039063.078125.003906.160156.011719.238281.011719 2.082031 0 4.1875-.480469 6.140625-1.476563l49.90625-25.375c6.238281-3.171875 11.910156-7.292969 16.859375-12.242187l223.335938-223.335938c11.507812-11.503906 11.507812-30.226562.003906-41.730469zm-245.164063 262.957031c-.605469.339844-1.214843.667969-1.832031.980469l-45.890625 23.332031 23.335937-45.886718c.3125-.621094.644532-1.234375.984376-1.84375.003906-.007813.007812-.011719.011718-.019532 10.03125 5.1875 18.234375 13.386719 23.417969 23.421876-.007813.003906-.019531.011718-.027344.015624zm-4.851562-29.164062c-2.898438-2.332031-5.992188-4.429688-9.246094-6.277344l164.730469-164.730468 7.761718 7.761718zm16.886719 19.855469c-1.847657-3.257813-3.949219-6.347657-6.28125-9.246094l163.246093-163.246094 7.765625 7.761719zm175.335937-175.335938-26.132813-26.132812 9.792969-9.792969 26.132813 26.132812zm47.183594-47.1875-26.785157 26.785157-26.132812-26.132813 26.785156-26.785156c2.742188-2.738281 6.386719-4.25 10.261719-4.25s7.519531 1.507812 10.257813 4.25l5.613281 5.613281c5.660156 5.65625 5.660156 14.863281 0 20.519531zm0 0" data-original="#000000" class="active-path" data-old_color="#FFF8F8" fill="#FFF9F9"/></g> </svg>
