<?xml version="1.0"?>
<svg xmlns="http://www.w3.org/2000/svg" xmlns:xlink="http://www.w3.org/1999/xlink" version="1.1" viewBox="0 0 192 192" width="500px" height="500px"><g fill="none" fill-rule="nonzero" stroke="none" stroke-width="none" stroke-linecap="butt" stroke-linejoin="miter" stroke-miterlimit="10" stroke-dasharray="" stroke-dashoffset="0" font-family="none" font-weight="none" font-size="none" text-anchor="none" style="mix-blend-mode: normal"><path d="M0,192v-192h192v192z" fill="#95a5a6" stroke="none" stroke-width="1"/><g fill="#61dbfb" stroke="none" stroke-width="1"><path d="M132.69,15.3c-2.99399,-0.10067 -6.12789,0.42132 -9.27,1.44c-6.28422,2.03737 -12.86946,6.00772 -19.6275,11.505c-2.64848,2.15439 -5.32099,4.61706 -8.0025,7.23c-2.62239,-2.5466 -5.23998,-4.95067 -7.83,-7.0575c-6.75261,-5.49287 -13.32,-9.45724 -19.59,-11.49c-6.26999,-2.03276 -12.50867,-2.09575 -17.6325,0.8625c-5.12384,2.95825 -8.18792,8.38865 -9.5625,14.835c-1.37458,6.44635 -1.23065,14.12313 0.15,22.7175c0.47957,2.98522 1.17102,6.117 1.95,9.3075c-2.92775,0.88729 -5.77096,1.82023 -8.4075,2.85c-7.95685,3.10776 -14.54066,6.82575 -19.335,11.25c-4.79434,4.42426 -7.89,9.79389 -7.89,15.69c0,5.89611 3.09566,11.25825 7.89,15.6825c4.79434,4.42426 11.37815,8.14974 19.335,11.2575c2.81923,1.10112 5.87151,2.09261 9.0225,3.03c-1.1334,4.23491 -2.05169,8.34443 -2.6775,12.24c-1.38177,8.60127 -1.52768,16.27902 -0.15,22.74c1.3777,6.46098 4.44334,11.92213 9.5925,14.895c5.14917,2.97287 11.41577,2.89987 17.7,0.8625c6.28422,-2.03737 12.86196,-6.00022 19.62,-11.4975c2.62409,-2.13455 5.27847,-4.56953 7.935,-7.155c2.66919,2.5996 5.33672,5.04844 7.9725,7.1925c6.75261,5.49287 13.3275,9.45724 19.5975,11.49c6.26999,2.03276 12.50117,2.09575 17.625,-0.8625c5.12383,-2.95825 8.18792,-8.38865 9.5625,-14.835c1.37457,-6.44635 1.22315,-14.12314 -0.1575,-22.7175c-0.62751,-3.90613 -1.54636,-8.02179 -2.685,-12.27c3.25507,-0.96022 6.40378,-1.97837 9.3075,-3.1125c7.95685,-3.10776 14.54066,-6.83325 19.335,-11.2575c4.79434,-4.42425 7.89,-9.78639 7.89,-15.6825c0,-5.89611 -3.09567,-11.26574 -7.89,-15.69c-4.79434,-4.42425 -11.37815,-8.14224 -19.335,-11.25c-2.67438,-1.04455 -5.56122,-1.98963 -8.535,-2.8875c0.78531,-3.21005 1.48254,-6.36429 1.965,-9.3675c1.38177,-8.60127 1.52771,-16.28652 0.15,-22.7475c-1.37767,-6.46098 -4.45083,-11.91462 -9.6,-14.8875c-2.57459,-1.48643 -5.42851,-2.20933 -8.4225,-2.31zM132.3375,23.115c1.87877,0.05137 3.48151,0.49846 4.8525,1.29c2.74198,1.58308 4.76873,4.66415 5.85,9.735c1.08127,5.07084 1.0439,11.92207 -0.2325,19.8675c-0.43702,2.72035 -1.07156,5.60347 -1.7925,8.5575c-7.8526,-1.88982 -16.45704,-3.29297 -25.6275,-4.1175c-4.60698,-6.38299 -9.34224,-12.18942 -14.115,-17.3475c2.5234,-2.46322 5.03046,-4.76697 7.4775,-6.7575c6.24274,-5.07812 12.15289,-8.53349 17.085,-10.1325c2.46606,-0.79951 4.62373,-1.14637 6.5025,-1.095zM59.4675,23.1375c1.88963,-0.05275 4.05183,0.29319 6.525,1.095c4.94634,1.60363 10.86683,5.05747 17.115,10.14c2.39735,1.95011 4.84944,4.20365 7.32,6.6075c-4.80719,5.199 -9.57563,11.06623 -14.2125,17.505c-9.13787,0.83975 -17.7116,2.25621 -25.53,4.155c-0.71629,-2.93991 -1.34238,-5.81148 -1.7775,-8.52c-1.27751,-7.95233 -1.30939,-14.81203 -0.225,-19.8975c1.08439,-5.08547 3.1277,-8.1823 5.895,-9.78c1.38365,-0.79885 3.00037,-1.25225 4.89,-1.305zM95.91,46.6275c3.12769,3.40376 6.25729,7.12981 9.36,11.1375c-3.04907,-0.12713 -6.13545,-0.2025 -9.27,-0.2025c-3.19697,0 -6.34211,0.07781 -9.45,0.21c3.10383,-4.01133 6.23112,-7.73831 9.36,-11.145zM96,65.3175c5.22199,0 10.31174,0.21458 15.2625,0.5775c3.40654,4.89276 6.73551,10.08345 9.9075,15.5775c2.78713,4.82746 5.30934,9.64749 7.605,14.4075c-2.31989,4.82316 -4.88437,9.70837 -7.71,14.6025c-2.4873,4.30813 -5.08475,8.39987 -7.725,12.345c-5.59224,0.46741 -11.38684,0.7275 -17.34,0.7275c-6.09648,0 -12.02127,-0.27552 -17.7375,-0.765c-2.59629,-3.88841 -5.14992,-7.92566 -7.5975,-12.165c-2.81917,-4.88294 -5.37127,-9.75174 -7.6875,-14.565c2.32595,-4.84045 4.88951,-9.74379 7.725,-14.655c3.15536,-5.46525 6.47462,-10.62591 9.8625,-15.495c5.00406,-0.37109 10.15289,-0.5925 15.435,-0.5925zM121.155,66.855c6.32736,0.78975 12.2683,1.88691 17.7975,3.2025c-1.64129,5.3804 -3.66295,11.00032 -6.1125,16.8c-1.59046,-3.06594 -3.2377,-6.1423 -5.0175,-9.225c-2.15571,-3.73379 -4.39712,-7.29921 -6.6675,-10.7775zM70.44,66.915c-2.22373,3.41497 -4.41183,6.90738 -6.525,10.5675c-1.80264,3.12226 -3.48407,6.24001 -5.0925,9.345c-2.42841,-5.76481 -4.43791,-11.35277 -6.0675,-16.7025c5.49013,-1.31849 11.39898,-2.41116 17.685,-3.21zM146.55,72.0975c2.72211,0.82363 5.35106,1.68314 7.7625,2.625c7.33499,2.86488 13.13704,6.25731 16.8975,9.7275c3.76046,3.47018 5.3925,6.77955 5.3925,9.99c0,3.21045 -1.63203,6.51982 -5.3925,9.99c-3.76047,3.47019 -9.56251,6.86263 -16.8975,9.7275c-2.67974,1.04664 -5.62401,1.99575 -8.685,2.895c-2.18354,-6.75371 -4.97057,-13.79962 -8.2875,-20.9925c3.81373,-8.25808 6.89458,-16.30977 9.21,-23.9625zM45.3225,72.135c2.28887,7.57609 5.33037,15.54836 9.09,23.7225c-3.3387,7.23481 -6.13953,14.32075 -8.3325,21.1125c-2.95311,-0.87559 -5.79759,-1.79899 -8.3925,-2.8125c-7.33499,-2.86488 -13.13704,-6.25731 -16.8975,-9.7275c-3.76046,-3.47018 -5.3925,-6.77955 -5.3925,-9.99c0,-3.21045 1.63204,-6.51981 5.3925,-9.99c3.76046,-3.47019 9.56251,-6.86263 16.8975,-9.7275c2.37435,-0.92736 4.95921,-1.77464 7.635,-2.5875zM96,76.8c-10.55838,0 -19.2,8.64162 -19.2,19.2c0,10.55838 8.64162,19.2 19.2,19.2c10.55838,0 19.2,-8.64162 19.2,-19.2c0,-10.55838 -8.64162,-19.2 -19.2,-19.2zM96,84.48c6.4078,0 11.52,5.1122 11.52,11.52c0,6.4078 -5.1122,11.52 -11.52,11.52c-6.4078,0 -11.52,-5.1122 -11.52,-11.52c0,-6.4078 5.1122,-11.52 11.52,-11.52zM132.9375,105.075c2.01391,4.76625 3.76443,9.43015 5.235,13.9275c-4.61804,1.0708 -9.53522,1.97306 -14.7075,2.685c1.48887,-2.37571 2.95925,-4.79571 4.395,-7.2825c1.79973,-3.11722 3.47125,-6.23036 5.0775,-9.33zM58.9125,105.0825c1.61475,3.11886 3.29654,6.24583 5.1075,9.3825c1.41769,2.45552 2.86532,4.85287 4.335,7.2c-5.15698,-0.71509 -10.05907,-1.62044 -14.6625,-2.6925c1.46392,-4.48363 3.21532,-9.13776 5.22,-13.89zM51.48,126.4275c6.94972,1.64636 14.48243,2.91104 22.47,3.735c5.33316,7.71364 10.88588,14.64118 16.4775,20.7c-2.4999,2.43744 -4.97765,4.72502 -7.4025,6.6975c-6.24274,5.07812 -12.16039,8.52599 -17.0925,10.125c-4.93212,1.59901 -8.61303,1.38807 -11.355,-0.195c-2.74198,-1.58308 -4.76123,-4.66416 -5.8425,-9.735c-1.08127,-5.07084 -1.05139,-11.91457 0.225,-19.86c0.57905,-3.60447 1.44442,-7.46412 2.52,-11.4675zM140.3925,126.4575c1.0838,4.02566 1.95279,7.90337 2.535,11.5275c1.27751,7.95233 1.30939,14.80452 0.225,19.89c-1.08439,5.08547 -3.1202,8.18979 -5.8875,9.7875c-2.7673,1.5977 -6.47616,1.81364 -11.4225,0.21c-4.94634,-1.60363 -10.86684,-5.06497 -17.115,-10.1475c-2.44229,-1.98667 -4.93719,-4.28529 -7.455,-6.7425c5.62797,-6.08167 11.22209,-13.04679 16.59,-20.805c8.00771,-0.81846 15.56134,-2.07558 22.53,-3.72zM83.97,130.95c3.94277,0.21487 7.9375,0.36 12.03,0.36c3.95714,0 7.82232,-0.13642 11.64,-0.3375c-3.90255,5.2653 -7.88051,10.05207 -11.8425,14.3625c-3.95958,-4.31964 -7.93006,-9.11496 -11.8275,-14.385z"/></g><g fill="#ffffff" stroke="none" stroke-width="1"><path d="M52.155,16.535l-3.7,-6.9h-4.01v6.9h-2.26v-17.06h5.65c1.92,0 3.39667,0.43667 4.43,1.31c1.04,0.87333 1.56,2.14667 1.56,3.82v0c0,1.06 -0.29,1.98667 -0.87,2.78c-0.57333,0.78667 -1.37,1.37667 -2.39,1.77v0l4.01,7.24v0.14zM44.445,1.325v6.47h3.46c1.11333,0 2,-0.29 2.66,-0.87c0.66,-0.58 0.99,-1.35333 0.99,-2.32v0c0,-1.05333 -0.31333,-1.86333 -0.94,-2.43c-0.62667,-0.56 -1.53333,-0.84333 -2.72,-0.85v0zM66.615,6.805v1.84h-7.39v6.05h8.59v1.84h-10.84v-17.06h10.72v1.85h-8.47v5.48zM81.665,16.535l-1.63,-4.45h-7.15l-1.6,4.45h-2.32l6.51,-17.06h1.97l6.53,17.06zM76.465,2.245l-2.9,7.99h5.8zM96.425,11.125h2.27c-0.21333,1.8 -0.88,3.19 -2,4.17c-1.12,0.98 -2.61,1.47 -4.47,1.47v0c-2.02,0 -3.63667,-0.72 -4.85,-2.16c-1.21333,-1.44667 -1.82,-3.38 -1.82,-5.8v0v-1.64c0,-1.58667 0.28333,-2.98333 0.85,-4.19c0.56667,-1.2 1.37,-2.12333 2.41,-2.77c1.04,-0.64667 2.24333,-0.97 3.61,-0.97v0c1.81333,0 3.26667,0.50667 4.36,1.52c1.09333,1.01333 1.73,2.41333 1.91,4.2v0h-2.27c-0.19333,-1.36 -0.61667,-2.34333 -1.27,-2.95c-0.65333,-0.61333 -1.56333,-0.92 -2.73,-0.92v0c-1.44,0 -2.56667,0.53333 -3.38,1.6c-0.82,1.06 -1.23,2.57 -1.23,4.53v0v1.66c0,1.84667 0.38667,3.31667 1.16,4.41c0.77333,1.09333 1.85667,1.64 3.25,1.64v0c1.24667,0 2.20333,-0.28333 2.87,-0.85c0.67333,-0.56 1.11667,-1.54333 1.33,-2.95zM113.215,-0.525v1.85h-5.49v15.21h-2.24v-15.21h-5.47v-1.85zM128.365,11.585v-12.11h2.26v12.08c0,1.63333 -0.49,2.91 -1.47,3.83c-0.98,0.92 -2.28667,1.38 -3.92,1.38v0c-1.69333,0 -3.01333,-0.43333 -3.96,-1.3c-0.94667,-0.86667 -1.42,-2.08 -1.42,-3.64v0h2.25c0,0.97333 0.26667,1.73333 0.8,2.28c0.54,0.54667 1.31667,0.82 2.33,0.82v0c0.92667,0 1.68,-0.29 2.26,-0.87c0.57333,-0.58667 0.86333,-1.41 0.87,-2.47zM139.485,8.925v0c-1.92667,-0.55333 -3.33,-1.23333 -4.21,-2.04c-0.88,-0.80667 -1.32,-1.80333 -1.32,-2.99v0c0,-1.34667 0.53667,-2.46 1.61,-3.34c1.07333,-0.88 2.47,-1.32 4.19,-1.32v0c1.17333,0 2.21667,0.22667 3.13,0.68c0.92,0.45333 1.63333,1.08 2.14,1.88c0.5,0.79333 0.75,1.66333 0.75,2.61v0h-2.26c0,-1.03333 -0.32667,-1.84333 -0.98,-2.43c-0.66,-0.59333 -1.58667,-0.89 -2.78,-0.89v0c-1.10667,0 -1.97333,0.24667 -2.6,0.74c-0.62,0.48667 -0.93,1.16333 -0.93,2.03v0c0,0.69333 0.29667,1.28 0.89,1.76c0.58667,0.48 1.59,0.92 3.01,1.32c1.42,0.4 2.53,0.84 3.33,1.32c0.8,0.48 1.39333,1.04 1.78,1.68c0.38667,0.64 0.58,1.39333 0.58,2.26v0c0,1.38667 -0.54,2.49667 -1.62,3.33c-1.08,0.82667 -2.52,1.24 -4.32,1.24v0c-1.17333,0 -2.26667,-0.22333 -3.28,-0.67c-1.02,-0.44667 -1.80333,-1.06333 -2.35,-1.85c-0.55333,-0.78 -0.83,-1.66667 -0.83,-2.66v0h2.26c0,1.03333 0.38,1.85 1.14,2.45c0.76667,0.59333 1.78667,0.89 3.06,0.89v0c1.18667,0 2.09667,-0.24 2.73,-0.72c0.63333,-0.48667 0.95,-1.14667 0.95,-1.98c0,-0.84 -0.29333,-1.48667 -0.88,-1.94c-0.58667,-0.46 -1.65,-0.91333 -3.19,-1.36z"/></g><path d="M32.185,26.765v-37.53h123.63v37.53z" fill="#ff0000" stroke="#50e3c2" stroke-width="3" opacity="0"/></g></svg>
